<?xml version="1.0" encoding="UTF-8" standalone="no"?>
<!-- Created with Inkscape (http://www.inkscape.org/) -->

<svg
   xmlns:dc="http://purl.org/dc/elements/1.1/"
   xmlns:cc="http://creativecommons.org/ns#"
   xmlns:rdf="http://www.w3.org/1999/02/22-rdf-syntax-ns#"
   xmlns:svg="http://www.w3.org/2000/svg"
   xmlns="http://www.w3.org/2000/svg"
   xmlns:sodipodi="http://sodipodi.sourceforge.net/DTD/sodipodi-0.dtd"
   xmlns:inkscape="http://www.inkscape.org/namespaces/inkscape"
   width="180mm"
   height="180mm"
   viewBox="0 0 180 180"
   version="1.1"
   id="svg8"
   inkscape:version="0.92.4 (5da689c313, 2019-01-14)"
   sodipodi:docname="logo.svg"
   inkscape:export-filename="C:\Users\Alexander\Documents\GitHub\yennysay\images\logo.png"
   inkscape:export-xdpi="175"
   inkscape:export-ydpi="175">
  <defs
     id="defs2" />
  <sodipodi:namedview
     id="base"
     pagecolor="#ffffff"
     bordercolor="#666666"
     borderopacity="1.0"
     inkscape:pageopacity="0.0"
     inkscape:pageshadow="2"
     inkscape:zoom="0.32"
     inkscape:cx="-1141.3534"
     inkscape:cy="741.43891"
     inkscape:document-units="mm"
     inkscape:current-layer="g880"
     showgrid="false"
     inkscape:window-width="1920"
     inkscape:window-height="986"
     inkscape:window-x="-11"
     inkscape:window-y="-11"
     inkscape:window-maximized="1" />
  <metadata
     id="metadata5">
    <rdf:RDF>
      <cc:Work
         rdf:about="">
        <dc:format>image/svg+xml</dc:format>
        <dc:type
           rdf:resource="http://purl.org/dc/dcmitype/StillImage" />
        <dc:title></dc:title>
      </cc:Work>
    </rdf:RDF>
  </metadata>
  <g
     inkscape:label="Layer 1"
     inkscape:groupmode="layer"
     id="layer1"
     transform="translate(0,-117)">
    <g
       id="g846"
       transform="rotate(-24.454693,-326.96613,130.5472)">
      <g
         id="g880"
         transform="rotate(11.459156,2612.648,-1081.7421)">
        <path
           style="fill:#ff6600;stroke-width:0.22959243"
           d="m 306.3114,910.80059 c -0.9607,-0.84163 -1.38027,-1.87483 -1.30699,-3.21592 0.0479,-0.87695 2.1363,-10.85198 2.61987,-12.51367 l 0.13404,-0.46059 -15.87538,-4.6821 c -14.67542,-4.32814 -15.92478,-4.72648 -16.52875,-5.27016 -0.35931,-0.32352 -0.74981,-0.84808 -0.86766,-1.16586 -0.30929,-0.83401 -0.83199,-9.8163 -0.61416,-10.55288 0.22437,-0.75666 1.33218,-1.95317 2.06861,-2.23286 0.29754,-0.11307 6.18373,-1.69407 13.08038,-3.51348 12.60082,-3.32421 47.75598,-12.61568 69.32187,-18.32169 41.97567,-11.10613 61.54234,-15.84752 62.41189,-15.79298 1.35838,0.0852 2.70715,0.91682 3.4874,2.15023 1.54141,5.20443 2.42289,19.87203 2.73778,25.07462 0.36958,6.10197 0.89632,14.9014 1.17055,19.55427 0.27425,4.65289 0.58219,9.69759 0.68433,11.21048 0.10215,1.51288 0.23003,3.57259 0.28421,4.57712 0.0542,1.00454 0.346,5.89288 0.64847,10.86295 1.03289,16.97123 1.14951,19.37195 0.97006,19.96943 -0.22081,0.73731 -1.33269,1.92785 -2.07902,2.22758 -1.61653,0.6492 -15.0541,-3.30485 -46.71392,-12.51804 l -29.51141,-8.58801 -2.28055,6.30575 c -1.25434,3.46817 -2.46394,6.52912 -2.68804,6.80211 -0.50293,0.61281 -1.77174,1.27025 -2.72855,1.414 -0.60127,0.0904 -3.73265,-0.77084 -19.19979,-5.28018 -17.82248,-5.19583 -18.50785,-5.41141 -19.22522,-6.04019 z m 35.19612,0.73297 c 0.2435,-0.83672 0.84147,-2.63462 1.329,-3.99532 l 0.88627,-2.47403 -13.64106,-3.96963 c -10.76007,-3.13123 -13.65562,-3.9145 -13.70982,-3.70874 -0.0482,0.18356 -1.29003,6.49198 -1.56881,7.97051 -0.005,0.0293 5.90111,1.77338 13.12586,3.87583 l 13.13588,3.82262 z"
           id="path826"
           inkscape:connector-curvature="0"
           sodipodi:nodetypes="cccccccccssccccccsccscsscsccsccsccscs" />
        <text
           xml:space="preserve"
           style="font-style:normal;font-weight:normal;font-size:10.58333302px;line-height:1.25;font-family:sans-serif;letter-spacing:0px;word-spacing:0px;fill:#000000;fill-opacity:1;stroke:none;stroke-width:0.26458332"
           x="124.09809"
           y="895.66675"
           id="text830"
           transform="rotate(-14.925754)"><tspan
             sodipodi:role="line"
             x="124.09809"
             y="895.66675"
             style="font-style:normal;font-variant:normal;font-weight:normal;font-stretch:normal;font-size:42.33333588px;font-family:'Arial Rounded MT Bold';-inkscape-font-specification:'Arial Rounded MT Bold, ';text-align:center;text-anchor:middle;fill:#000000;stroke-width:0.26458332"
             id="tspan832">yenny</tspan></text>
        <text
           xml:space="preserve"
           style="font-style:normal;font-weight:normal;font-size:10.58333302px;line-height:1.25;font-family:sans-serif;letter-spacing:0px;word-spacing:0px;fill:#f9f9f9;fill-opacity:1;stroke:none;stroke-width:0.26458332"
           x="140.6618"
           y="957.54614"
           id="text830-0"
           transform="rotate(-14.925754)"><tspan
             sodipodi:role="line"
             x="140.6618"
             y="957.54614"
             style="font-style:normal;font-variant:normal;font-weight:normal;font-stretch:normal;font-size:63.50000381px;font-family:'Britannic Bold';-inkscape-font-specification:'Britannic Bold, ';text-align:center;text-anchor:middle;fill:#f9f9f9;stroke-width:0.26458332"
             id="tspan832-9">say</tspan></text>
      </g>
    </g>
    <flowRoot
       xml:space="preserve"
       id="flowRoot834"
       style="font-style:normal;font-weight:normal;font-size:40px;line-height:1.25;font-family:sans-serif;letter-spacing:0px;word-spacing:0px;fill:#000000;fill-opacity:1;stroke:none"
       transform="scale(0.26458333)"><flowRegion
         id="flowRegion836"><rect
           id="rect838"
           width="855.59918"
           height="543.4621"
           x="-1623.3152"
           y="359.85452" /></flowRegion><flowPara
         id="flowPara840"></flowPara></flowRoot>  </g>
</svg>
